<?xml version="1.0" encoding="utf-8"?>
<svg version="1.1" id="Capa_1" x="0px" y="0px" viewBox="0 0 512 512" style="enable-background:new 0 0 512 512;" xmlns="http://www.w3.org/2000/svg">
  <g>
    <g>
      <path d="M 436.333 191 L 404.333 191 L 404.333 148.333 C 404.333 65.99 337.344 -1 255 -1 C 195.922 -1 157.524 25.464 135.252 58.385 C 123.006 76.486 125.449 81.27 125.449 81.27 C 125.449 87.166 126.003 100.774 131.899 100.774 L 175 108.835 C 180.896 108.835 189.251 96.063 189.251 90.167 C 189.251 90.167 188.626 87.502 199.58 74.768 C 207.34 65.747 225.981 63 255 63 C 302.052 63 340.333 101.281 340.333 148.333 L 340.333 191 L 73.667 191 C 67.771 191 63 195.771 63 201.667 L 63 468.334 C 63 491.865 82.135 511 105.667 511 L 404.334 511 C 427.865 511 447 491.865 447 468.333 L 447 201.667 C 447 195.771 442.229 191 436.333 191 Z M 286.938 413.823 C 287.271 416.833 286.303 419.854 284.282 422.115 C 282.261 424.375 279.365 425.667 276.334 425.667 L 233.667 425.667 C 230.636 425.667 227.74 424.375 225.719 422.115 C 223.698 419.855 222.729 416.834 223.063 413.823 L 229.792 353.313 C 218.865 345.365 212.334 332.792 212.334 319 C 212.334 295.469 231.469 276.333 255.001 276.333 C 278.533 276.333 297.668 295.468 297.668 319 C 297.668 332.792 291.137 345.365 280.21 353.313 L 286.938 413.823 Z"/>
    </g>
  </g>
  <g/>
  <g/>
  <g/>
  <g/>
  <g/>
  <g/>
  <g/>
  <g/>
  <g/>
  <g/>
  <g/>
  <g/>
  <g/>
  <g/>
  <g/>
</svg>