<?xml version="1.0" encoding="utf-8"?>
<svg version="1.1" id="Capa_1" x="0px" y="0px" width="80.13px" height="80.13px" viewBox="9.761 13.281 61.634 64.843" style="enable-background:new 0 0 80.13 80.13;" xmlns="http://www.w3.org/2000/svg">
  <g>
    <path d="M 40.656 41.984 C 47.147 41.984 52.408 36.722 52.408 30.232 C 52.408 23.742 47.146 18.481 40.656 18.481 C 34.166 18.481 28.902 23.743 28.902 30.233 C 28.902 36.723 34.166 41.984 40.656 41.984 Z M 45.641 42.785 L 35.669 42.785 C 27.372 42.785 20.622 49.536 20.622 57.833 L 20.622 70.028 L 20.653 70.219 L 21.493 70.482 C 29.411 72.956 36.29 73.781 41.952 73.781 C 53.011 73.781 59.421 70.628 59.816 70.427 L 60.601 70.03 L 60.685 70.03 L 60.685 57.833 C 60.688 49.536 53.938 42.785 45.641 42.785 Z M 0.031 58.084 C 0.031 58.084 0 37.403 0 45.699 L 0 57.896 L 0.031 58.084 Z"/>
  </g>
  <g/>
  <g/>
  <g/>
  <g/>
  <g/>
  <g/>
  <g/>
  <g/>
  <g/>
  <g/>
  <g/>
  <g/>
  <g/>
  <g/>
  <g/>
</svg>